<svg width="128" height="128" viewBox="0 0 128 128" fill="none" xmlns="http://www.w3.org/2000/svg">
<path fill-rule="evenodd" clip-rule="evenodd" d="M111.139 88.1202C111.642 88.1202 111.943 87.8392 111.943 87.4323C111.943 86.9772 111.691 86.7843 111.129 86.7843H110.656V88.1195L111.139 88.1202ZM109.92 86.1649H111.159C112.213 86.1649 112.687 86.5816 112.687 87.4135C112.687 88.0223 112.319 88.3606 111.932 88.5158L113.055 90.3935H112.223L111.255 88.7193H110.656V90.3935H109.92V86.1649ZM114.245 88.2747C114.245 86.6004 112.997 85.2366 111.246 85.2366C109.495 85.2366 108.237 86.5032 108.237 88.2739C108.237 89.9482 109.495 91.3112 111.246 91.3112C112.9 91.3112 114.245 90.0454 114.245 88.2747ZM107.696 88.2747C107.696 86.2139 109.186 84.7235 111.245 84.7235C113.21 84.7235 114.796 86.2139 114.796 88.2739C114.796 90.3347 113.306 91.8244 111.246 91.8244C109.186 91.8244 107.696 90.3355 107.696 88.2747ZM66.1896 88.0351C66.1896 83.7379 70.0173 79.8085 74.5789 75.2484L79.6325 70.194C82.9855 66.841 90.0268 59.7959 87.0904 53.1524C86.8976 52.7154 87.2163 52.4984 87.5124 52.8601C91.9542 58.2912 90.4427 66.7438 81.7098 75.4767L74.5623 82.61C70.0505 87.1211 67.8684 89.313 66.7412 94.7833C66.6568 95.1924 66.1896 95.1909 66.1896 94.7833V88.0351ZM49.7697 70.7328C44.6325 75.8693 43.3923 81.8226 47.4769 85.361C47.819 85.6571 47.6412 86.0203 47.1943 85.8161C42.1 83.4938 38.084 75.0593 46.8176 66.3256L64.3006 48.8583C68.8125 44.3464 70.9953 42.1975 72.1218 36.7279C72.2069 36.3188 72.6741 36.3211 72.6741 36.7279V43.4302C72.6741 47.7273 68.8449 51.6568 64.2848 56.2169L49.7697 70.7328ZM40.5215 77.6535C36.0797 72.2224 37.5905 63.7713 46.3233 55.0377L64.3202 37.0565C68.8321 32.5453 71.0142 30.3534 72.1414 24.8831C72.2258 24.474 72.6929 24.4762 72.6929 24.8831V31.6314C72.6929 35.9285 68.8637 39.8579 64.3037 44.4188L48.4014 60.3203C45.0484 63.6734 38.0064 70.7185 40.9435 77.3627C41.1363 77.7997 40.8176 78.016 40.5215 77.6535ZM37.4759 65.8133C35.871 60.6308 36.9199 52.6853 44.4306 45.1738L64.2976 25.2976C68.8095 20.7864 70.9976 18.6277 72.1248 13.1589C72.2092 12.749 72.6763 12.7505 72.6763 13.1589V19.8604C72.6763 24.1575 68.8471 28.087 64.2863 32.6478L47.1521 49.7768C39.2044 57.7261 37.9521 61.4672 37.989 65.8216C37.9928 66.2834 37.6123 66.2525 37.4759 65.8133ZM78.2642 59.7824C83.4014 54.6443 84.6416 48.6925 80.557 45.1534C80.2149 44.8573 80.3927 44.4949 80.8396 44.6983C85.9331 47.0198 89.9492 55.4543 81.2163 64.1887L74.5811 70.8081C70.0693 75.32 67.8865 77.4689 66.7592 82.9393C66.6749 83.3476 66.2077 83.3461 66.2077 82.9393V76.2362C66.2077 71.9391 70.0369 68.0104 74.597 63.4496L78.2642 59.7824ZM90.558 64.7011C92.1614 69.8836 91.114 77.8291 83.6033 85.3406L74.5834 94.3689L73.8495 95.1043H67.6408C69.1613 92.4927 71.7337 89.8804 74.5955 87.0194L80.8818 80.7376C88.8295 72.789 90.0818 69.0472 90.0441 64.6928C90.0411 64.2317 90.4208 64.2603 90.558 64.7011ZM66.757 106.508C66.6726 106.917 66.2054 106.916 66.2054 106.508V99.8151C66.2054 99.6644 66.3283 99.5408 66.4797 99.5408L69.795 99.5393C68.3212 101.489 67.3779 103.496 66.757 106.508ZM81.4793 106.323C72.8504 104.869 68.1464 108.975 66.7381 112.821C66.6138 113.161 66.21 113.11 66.21 112.785L66.2054 111.588C66.2054 107.291 70.0346 103.362 74.5955 98.8017L82.1295 91.2615L102.202 94.714C102.202 94.714 107.936 100.448 112.84 105.355C122.295 94.2009 128 79.7678 128 63.9996C128 28.6536 99.3466 0 64.0008 0C28.6549 0 0 28.6536 0 63.9996C0 79.7678 5.70687 94.2009 15.1616 105.355C20.0645 100.447 25.7985 94.714 25.7985 94.714L48.5838 90.7981C59.1363 88.9611 61.7697 91.3354 61.787 94.8293C61.7868 94.9018 61.758 94.9713 61.7067 95.0227C61.6555 95.0741 61.5861 95.1031 61.5135 95.1035L54.9333 95.1013C54.7827 95.1013 54.6598 95.2241 54.6598 95.3755V99.265C54.6598 99.4165 54.7827 99.5393 54.9333 99.5393H61.5188C61.6695 99.5393 61.7923 99.6614 61.7923 99.8136L61.7915 112.785C61.7915 113.11 61.3877 113.162 61.2633 112.821C59.8543 108.974 55.1511 104.868 46.5222 106.323C46.5222 106.323 31.5174 108.916 20.387 110.833C31.8173 121.481 47.1461 128 64.0008 128C80.8554 128 96.1842 121.481 107.615 110.833C98.9024 109.332 90.1906 107.829 81.4793 106.323Z" fill="#FF3E00"/>
</svg>
